<svg width="17" height="19" viewBox="0 0 15 17" fill="black" xmlns="http://www.w3.org/2000/svg">
  <g>
    <path d="M12.8265 3.68148H13.7818C13.9729 3.68148 14.1003 3.52057 14.1003 3.35967C14.1003 2.49078 13.3997 1.75062 12.5081 1.75062H10.2471C10.1197 1.01046 9.45099 0.463379 8.68672 0.463379H6.13916C5.37489 0.463379 4.738 1.01046 4.57877 1.75062H2.31781C1.42617 1.75062 0.725586 2.4586 0.725586 3.35967C0.725586 3.55275 0.852964 3.68148 1.04403 3.68148H1.99937V13.6576C1.99937 15.2666 3.27315 16.5539 4.86537 16.5539H9.9605C11.5527 16.5539 12.8265 15.2666 12.8265 13.6576V3.68148ZM6.13916 1.107H8.68672C9.1007 1.107 9.45099 1.36445 9.57836 1.75062H5.24751C5.37489 1.36445 5.72518 1.107 6.13916 1.107ZM12.1896 13.6576C12.1896 14.9126 11.2024 15.9103 9.9605 15.9103H4.86537C3.62344 15.9103 2.63626 14.9126 2.63626 13.6576V3.68148H12.1896V13.6576ZM2.31781 3.03786H1.42617C1.55354 2.65169 1.90383 2.39424 2.31781 2.39424H4.86537H9.9605H12.5081C12.922 2.39424 13.2723 2.65169 13.3997 3.03786H12.5081H2.31781Z"/>
    <path d="M4.86532 13.0139C5.05639 13.0139 5.18377 12.8852 5.18377 12.6921V6.25589C5.18377 6.06281 5.05639 5.93408 4.86532 5.93408C4.67425 5.93408 4.54688 6.06281 4.54688 6.25589V12.6921C4.54688 12.8852 4.67425 13.0139 4.86532 13.0139Z"/>
    <path d="M7.41317 13.0139C7.60424 13.0139 7.73162 12.8852 7.73162 12.6921V6.25589C7.73162 6.06281 7.60424 5.93408 7.41317 5.93408C7.2221 5.93408 7.09473 6.06281 7.09473 6.25589V12.6921C7.09473 12.8852 7.2221 13.0139 7.41317 13.0139Z"/>
    <path d="M9.96005 13.0139C10.1511 13.0139 10.2785 12.8852 10.2785 12.6921V6.25589C10.2785 6.06281 10.1511 5.93408 9.96005 5.93408C9.76898 5.93408 9.6416 6.06281 9.6416 6.25589V12.6921C9.6416 12.8852 9.76898 13.0139 9.96005 13.0139Z"/>
  </g>
</svg>
